<svg width="331" height="78" viewBox="0 0 331 78" fill="none" xmlns="http://www.w3.org/2000/svg">
<path d="M244.67 22H240.774C239.281 22 238.101 21.5779 237.235 20.7337C236.391 19.8896 235.969 18.7099 235.969 17.1947V5.92818C235.969 4.41299 236.391 3.23331 237.235 2.38913C238.101 1.54496 239.281 1.12287 240.774 1.12287H244.67C246.164 1.12287 247.333 1.54496 248.177 2.38913C249.043 3.23331 249.476 4.41299 249.476 5.92818V7.51913C249.476 7.82217 249.324 7.97368 249.021 7.97368H247.56C247.257 7.97368 247.105 7.82217 247.105 7.51913V6.02558C247.105 4.14242 246.196 3.20084 244.378 3.20084H241.034C239.237 3.20084 238.339 4.14242 238.339 6.02558V17.0973C238.339 18.9804 239.237 19.922 241.034 19.922H244.378C246.196 19.922 247.105 18.9804 247.105 17.0973V15.6037C247.105 15.3007 247.257 15.1492 247.56 15.1492H249.021C249.324 15.1492 249.476 15.3007 249.476 15.6037V17.1947C249.476 18.7099 249.043 19.8896 248.177 20.7337C247.333 21.5779 246.164 22 244.67 22ZM258.6 19.922H261.912C263.73 19.922 264.639 18.9804 264.639 17.0973V6.02558C264.639 4.14242 263.73 3.20084 261.912 3.20084H258.6C256.803 3.20084 255.905 4.14242 255.905 6.02558V17.0973C255.905 18.9804 256.803 19.922 258.6 19.922ZM262.204 22H258.34C256.846 22 255.667 21.5779 254.801 20.7337C253.957 19.8896 253.535 18.7099 253.535 17.1947V5.92818C253.535 4.41299 253.957 3.23331 254.801 2.38913C255.667 1.54496 256.846 1.12287 258.34 1.12287H262.204C263.697 1.12287 264.866 1.55578 265.71 2.4216C266.576 3.26578 267.009 4.43464 267.009 5.92818V17.1947C267.009 18.6882 266.576 19.8679 265.71 20.7337C264.866 21.5779 263.697 22 262.204 22ZM274.501 19.922H279.955C281.774 19.922 282.683 18.9804 282.683 17.0973V6.02558C282.683 4.14242 281.774 3.20084 279.955 3.20084H274.501C274.284 3.20084 274.176 3.29824 274.176 3.49305V19.6298C274.176 19.8246 274.284 19.922 274.501 19.922ZM271.806 21.5454V1.57742C271.806 1.27439 271.957 1.12287 272.26 1.12287H280.248C281.741 1.12287 282.91 1.55578 283.754 2.4216C284.62 3.26578 285.053 4.43464 285.053 5.92818V17.1947C285.053 18.6882 284.62 19.8679 283.754 20.7337C282.91 21.5779 281.741 22 280.248 22H272.26C271.957 22 271.806 21.8485 271.806 21.5454ZM300.497 22H290.302C289.999 22 289.847 21.8485 289.847 21.5454V1.57742C289.847 1.27439 289.999 1.12287 290.302 1.12287H300.497C300.8 1.12287 300.951 1.27439 300.951 1.57742V2.74628C300.951 3.04932 300.8 3.20084 300.497 3.20084H292.542C292.326 3.20084 292.217 3.29824 292.217 3.49305V10.0517C292.217 10.2465 292.326 10.3439 292.542 10.3439H299.49C299.793 10.3439 299.945 10.4954 299.945 10.7984V11.9673C299.945 12.2703 299.793 12.4218 299.49 12.4218H292.542C292.326 12.4218 292.217 12.5192 292.217 12.7141V19.6298C292.217 19.8246 292.326 19.922 292.542 19.922H300.497C300.8 19.922 300.951 20.0735 300.951 20.3766V21.5454C300.951 21.8485 300.8 22 300.497 22ZM241.813 74H239.313C239.01 74 238.826 73.8485 238.761 73.5454L234.605 53.5774C234.54 53.2744 234.681 53.1229 235.027 53.1229H236.781C237.105 53.1229 237.278 53.2744 237.3 53.5774L240.579 71.4675H240.774L245.157 53.545C245.222 53.2636 245.395 53.1229 245.677 53.1229H247.625C247.906 53.1229 248.08 53.2636 248.144 53.545L252.593 71.4675H252.787L256.034 53.6099C256.099 53.2852 256.283 53.1229 256.586 53.1229H258.34C258.686 53.1229 258.827 53.2852 258.762 53.6099L254.573 73.5454C254.508 73.8485 254.335 74 254.054 74H251.554C251.251 74 251.067 73.8485 251.002 73.5454L246.748 56.11H246.618L242.333 73.5454C242.268 73.8485 242.095 74 241.813 74ZM272.816 74H262.621C262.318 74 262.167 73.8485 262.167 73.5454V53.5774C262.167 53.2744 262.318 53.1229 262.621 53.1229H272.816C273.119 53.1229 273.271 53.2744 273.271 53.5774V54.7463C273.271 55.0493 273.119 55.2008 272.816 55.2008H264.862C264.645 55.2008 264.537 55.2982 264.537 55.4931V62.0517C264.537 62.2465 264.645 62.3439 264.862 62.3439H271.81C272.113 62.3439 272.264 62.4954 272.264 62.7984V63.9673C272.264 64.2703 272.113 64.4218 271.81 64.4218H264.862C264.645 64.4218 264.537 64.5192 264.537 64.7141V71.6298C264.537 71.8246 264.645 71.922 264.862 71.922H272.816C273.119 71.922 273.271 72.0735 273.271 72.3766V73.5454C273.271 73.8485 273.119 74 272.816 74ZM288.416 74H278.221C277.918 74 277.767 73.8485 277.767 73.5454V53.5774C277.767 53.2744 277.918 53.1229 278.221 53.1229H288.416C288.719 53.1229 288.871 53.2744 288.871 53.5774V54.7463C288.871 55.0493 288.719 55.2008 288.416 55.2008H280.462C280.245 55.2008 280.137 55.2982 280.137 55.4931V62.0517C280.137 62.2465 280.245 62.3439 280.462 62.3439H287.41C287.713 62.3439 287.864 62.4954 287.864 62.7984V63.9673C287.864 64.2703 287.713 64.4218 287.41 64.4218H280.462C280.245 64.4218 280.137 64.5192 280.137 64.7141V71.6298C280.137 71.8246 280.245 71.922 280.462 71.922H288.416C288.719 71.922 288.871 72.0735 288.871 72.3766V73.5454C288.871 73.8485 288.719 74 288.416 74ZM295.282 74H293.821C293.518 74 293.367 73.8485 293.367 73.5454V53.5774C293.367 53.2744 293.518 53.1229 293.821 53.1229H295.282C295.585 53.1229 295.737 53.2744 295.737 53.5774V64.779H295.834C295.986 64.3244 296.224 63.8807 296.549 63.4478L303.822 53.5774C304.016 53.2744 304.298 53.1229 304.666 53.1229H306.419C306.787 53.1229 306.841 53.2852 306.581 53.6099L300.153 62.3114L307.49 73.4805C307.729 73.8268 307.631 74 307.198 74H305.867C305.412 74 305.099 73.8485 304.925 73.5454L298.692 64.0322L295.737 67.5713V73.5454C295.737 73.8485 295.585 74 295.282 74Z" fill="white"/>
<path d="M240.105 44.4138H243.644C244.336 44.4138 244.823 44.2731 245.105 43.9917C245.408 43.6887 245.559 43.1909 245.559 42.4982V32.5954C245.559 31.9027 245.408 31.4157 245.105 31.1343C244.823 30.8313 244.336 30.6797 243.644 30.6797H240.105C239.867 30.6797 239.748 30.7988 239.748 31.0369V44.0567C239.748 44.2948 239.867 44.4138 240.105 44.4138ZM235.624 47.3035V27.7901C235.624 27.3355 235.851 27.1082 236.306 27.1082H244.326C246.014 27.1082 247.324 27.5736 248.254 28.5044C249.207 29.4135 249.683 30.7122 249.683 32.4006V42.693C249.683 44.3814 249.207 45.6909 248.254 46.6217C247.324 47.5308 246.014 47.9854 244.326 47.9854H236.306C235.851 47.9854 235.624 47.7581 235.624 47.3035ZM264.869 47.9854H254.252C253.798 47.9854 253.57 47.7581 253.57 47.3035V27.7901C253.57 27.3355 253.798 27.1082 254.252 27.1082H264.869C265.302 27.1082 265.519 27.3355 265.519 27.7901V29.9979C265.519 30.4525 265.302 30.6797 264.869 30.6797H258.084C257.824 30.6797 257.694 30.7988 257.694 31.0369V35.2578C257.694 35.4959 257.824 35.6149 258.084 35.6149H263.636C264.09 35.6149 264.317 35.8422 264.317 36.2968V38.5046C264.317 38.9592 264.09 39.1864 263.636 39.1864H258.084C257.824 39.1864 257.694 39.3055 257.694 39.5436V44.0567C257.694 44.2948 257.824 44.4138 258.084 44.4138H264.869C265.302 44.4138 265.519 44.6411 265.519 45.0957V47.3035C265.519 47.7581 265.302 47.9854 264.869 47.9854ZM268.588 42.6605V42.0112C268.588 41.5566 268.815 41.3293 269.269 41.3293H272.029C272.484 41.3293 272.711 41.5566 272.711 42.0112V42.2709C272.711 43.0935 272.873 43.6562 273.198 43.9593C273.523 44.2623 274.118 44.4138 274.984 44.4138H276.51C277.354 44.4138 277.938 44.2515 278.263 43.9268C278.609 43.6021 278.783 42.9961 278.783 42.1086V41.719C278.783 41.0912 278.523 40.615 278.003 40.2904C277.506 39.944 276.878 39.7384 276.12 39.6735C275.363 39.6085 274.54 39.4895 273.653 39.3163C272.787 39.1215 271.975 38.8834 271.218 38.602C270.46 38.299 269.821 37.7254 269.302 36.8812C268.804 36.0154 268.555 34.9114 268.555 33.5694V32.433C268.555 30.7447 269.031 29.4351 269.984 28.5044C270.936 27.5736 272.256 27.1082 273.945 27.1082H277.192C278.902 27.1082 280.233 27.5736 281.185 28.5044C282.138 29.4351 282.614 30.7447 282.614 32.433V33.0499C282.614 33.5045 282.387 33.7318 281.932 33.7318H279.172C278.718 33.7318 278.49 33.5045 278.49 33.0499V32.8551C278.49 32.0109 278.328 31.4373 278.003 31.1343C277.679 30.8313 277.083 30.6797 276.218 30.6797H274.951C274.064 30.6797 273.458 30.8529 273.133 31.1992C272.83 31.5239 272.679 32.1733 272.679 33.1473V33.7642C272.679 34.7816 273.566 35.366 275.341 35.5175C277.181 35.669 278.815 36.037 280.244 36.6214C281.001 36.9461 281.629 37.5306 282.127 38.3747C282.646 39.1973 282.906 40.2579 282.906 41.5566V42.6605C282.906 44.3489 282.43 45.6585 281.478 46.5892C280.525 47.52 279.205 47.9854 277.516 47.9854H273.977C272.289 47.9854 270.969 47.52 270.016 46.5892C269.064 45.6585 268.588 44.3489 268.588 42.6605ZM290.895 27.7901V47.3035C290.895 47.7581 290.668 47.9854 290.214 47.9854H287.454C286.999 47.9854 286.772 47.7581 286.772 47.3035V27.7901C286.772 27.3355 286.999 27.1082 287.454 27.1082H290.214C290.668 27.1082 290.895 27.3355 290.895 27.7901ZM303.74 47.9854H300.298C298.588 47.9854 297.268 47.5308 296.337 46.6217C295.406 45.7126 294.941 44.403 294.941 42.693V32.4006C294.941 30.6906 295.406 29.381 296.337 28.4719C297.268 27.5628 298.588 27.1082 300.298 27.1082H303.74C305.428 27.1082 306.738 27.5736 307.669 28.5044C308.599 29.4135 309.065 30.7122 309.065 32.4006V33.3746C309.065 33.8508 308.837 34.0889 308.383 34.0889H305.623C305.168 34.0889 304.941 33.8508 304.941 33.3746V32.5954C304.941 31.9027 304.8 31.4157 304.519 31.1343C304.238 30.8313 303.751 30.6797 303.058 30.6797H300.948C300.277 30.6797 299.79 30.8313 299.487 31.1343C299.205 31.4157 299.064 31.9027 299.064 32.5954V42.4982C299.064 43.1909 299.205 43.6887 299.487 43.9917C299.79 44.2731 300.277 44.4138 300.948 44.4138H303.058C303.751 44.4138 304.238 44.2731 304.519 43.9917C304.8 43.6887 304.941 43.1909 304.941 42.4982V40.4527C304.941 40.2146 304.822 40.0955 304.584 40.0955H302.636C302.181 40.0955 301.954 39.8683 301.954 39.4137V37.2059C301.954 36.7513 302.181 36.524 302.636 36.524H308.318C308.816 36.524 309.065 36.773 309.065 37.2708V42.693C309.065 44.3814 308.599 45.6909 307.669 46.6217C306.738 47.5308 305.428 47.9854 303.74 47.9854ZM316.335 47.9854H313.64C313.186 47.9854 312.958 47.7581 312.958 47.3035V27.7901C312.958 27.3355 313.186 27.1082 313.64 27.1082H316.075C316.53 27.1082 316.833 27.2597 316.984 27.5628L323.543 39.8683H323.673V27.7901C323.673 27.3355 323.9 27.1082 324.355 27.1082H327.05C327.504 27.1082 327.731 27.3355 327.731 27.7901V47.3035C327.731 47.7581 327.504 47.9854 327.05 47.9854H324.679C324.203 47.9854 323.857 47.7689 323.64 47.336L317.147 35.2578H317.017V47.3035C317.017 47.7581 316.79 47.9854 316.335 47.9854Z" fill="white"/>
<path d="M30.491 2.30658C30.491 2.30658 50.0128 1.9222 52.9519 2.30658C55.891 2.69096 61.5539 4.21814 62.5097 12.3423C63.4655 20.4664 57.5715 23.971 53.9077 25.2453C50.2438 26.5197 32.8805 25.7232 32.8805 25.7232C29.5352 25.5639 22.4625 26.8702 15.1985 33.3695C7.93458 39.8688 5.16282 50.5735 4.68493 55.3524C-0.0939872 46.7504 -2.67459 34.3253 4.20703 20.9443C11.3754 8.04127 21.889 2.78447 30.491 2.30658Z" fill="white"/>
<path d="M30.8533 73.0332H53.4265C55.3718 72.4592 62.5064 70.1659 62.9843 62.0417C62.0285 49.6166 51.5149 50.0944 50.5591 50.0944C32.3276 51.123 23.863 51.0211 22.8415 34.3241C9.9384 44.8377 8.98265 54.8734 13.2837 62.9975C16.6894 69.4306 24.2878 72.6888 30.8533 73.0332Z" fill="url(#paint0_linear_153_3)"/>
<path d="M69.6504 1.53906H92.6439C112.599 1.53906 128.777 17.7162 128.777 37.6718C128.777 57.6273 112.599 73.8045 92.6439 73.8045H69.6504V1.53906Z" fill="#720135"/>
<path d="M69.6504 2.63379H92.6439C111.995 2.63379 127.682 18.3207 127.682 37.6716C127.682 57.0224 111.995 72.7093 92.6439 72.7093H69.6504V2.63379Z" fill="white"/>
<path d="M69.6504 3.72852H92.6439C111.39 3.72852 126.587 18.9252 126.587 37.6713C126.587 56.4175 111.39 71.6142 92.6439 71.6142H69.6504V3.72852Z" fill="#720135"/>
<path d="M69.6504 4.82324H92.6439C110.785 4.82324 125.492 19.5298 125.492 37.6711C125.492 55.8125 110.785 70.5191 92.6439 70.5191H69.6504V4.82324Z" fill="#FFB0D5"/>
<path d="M69.6504 5.91992H92.6439C110.181 5.91992 124.397 20.1362 124.397 37.6729C124.397 55.2096 110.181 69.4259 92.6439 69.4259H69.6504V5.91992Z" fill="#720135"/>
<path d="M69.6504 7.01367H92.6439C109.576 7.01367 123.302 20.7397 123.302 37.6717C123.302 54.6037 109.576 68.3298 92.6439 68.3298H69.6504V7.01367Z" fill="white"/>
<path d="M69.6504 8.1084H92.6439C108.971 8.1084 122.207 21.3443 122.207 37.6715C122.207 53.9988 108.971 67.2346 92.6439 67.2346H69.6504V8.1084Z" fill="#720135"/>
<path d="M69.6504 9.2041H92.6439C108.366 9.2041 121.112 21.9497 121.112 37.6723C121.112 53.3948 108.366 66.1405 92.6439 66.1405H69.6504V9.2041Z" fill="#FFB0D5"/>
<path d="M69.6504 10.2988H92.6439C107.762 10.2988 120.017 22.5543 120.017 37.6721C120.017 52.7899 107.762 65.0453 92.6439 65.0453H69.6504V10.2988Z" fill="#720135"/>
<path d="M69.6504 11.3945H92.6439C107.157 11.3945 118.922 23.1597 118.922 37.6729C118.922 52.186 107.157 63.9512 92.6439 63.9512H69.6504V11.3945Z" fill="white"/>
<path d="M69.6504 12.4893H92.6439C106.552 12.4893 117.827 23.7642 117.827 37.6726C117.827 51.5811 106.552 62.856 92.6439 62.856H69.6504V12.4893Z" fill="#720135"/>
<path d="M69.6504 13.584H92.6439C105.948 13.584 116.732 24.3688 116.732 37.6724C116.732 50.9761 105.948 61.7609 92.6439 61.7609H69.6504V13.584Z" fill="#FFB0D5"/>
<path d="M69.6504 14.6787H92.6439C105.343 14.6787 115.637 24.9733 115.637 37.6722C115.637 50.3712 105.343 60.6658 92.6439 60.6658H69.6504V14.6787Z" fill="#720135"/>
<path d="M69.6504 15.7734H92.6439C104.738 15.7734 114.543 25.5778 114.543 37.672C114.543 49.7663 104.738 59.5706 92.6439 59.5706H69.6504V15.7734Z" fill="white"/>
<path d="M69.6504 16.8682H92.6439C104.133 16.8682 113.448 26.1823 113.448 37.6718C113.448 49.1614 104.133 58.4755 92.6439 58.4755H69.6504V16.8682Z" fill="#720135"/>
<path d="M69.6504 17.9629H92.6439C103.529 17.9629 112.353 26.7868 112.353 37.6716C112.353 48.5565 103.529 57.3804 92.6439 57.3804H69.6504V17.9629Z" fill="white"/>
<path d="M69.6504 17.9629H92.6439C103.529 17.9629 112.353 26.7868 112.353 37.6716C112.353 48.5565 103.529 57.3804 92.6439 57.3804H69.6504V17.9629Z" fill="#720135"/>
<path d="M69.6504 17.9629H92.6439C103.529 17.9629 112.353 26.7868 112.353 37.6716C112.353 48.5565 103.529 57.3804 92.6439 57.3804H69.6504V17.9629Z" fill="#FFB0D5"/>
<path d="M69.6504 19.0586H92.6439C102.924 19.0586 111.258 27.3923 111.258 37.6724C111.258 47.9525 102.924 56.2862 92.6439 56.2862H69.6504V19.0586Z" fill="#720135"/>
<path d="M69.6504 20.1533H92.6439C102.319 20.1533 110.163 27.9968 110.163 37.6722C110.163 47.3476 102.319 55.1911 92.6439 55.1911H69.6504V20.1533Z" fill="white"/>
<path d="M69.6504 21.248H92.6439C101.715 21.248 109.068 28.6013 109.068 37.672C109.068 46.7427 101.715 54.096 92.6439 54.096H69.6504V21.248Z" fill="#720135"/>
<path d="M69.6504 22.3428H92.6439C101.11 22.3428 107.973 29.2058 107.973 37.6718C107.973 46.1378 101.11 53.0008 92.6439 53.0008H69.6504V22.3428Z" fill="#FFB0D5"/>
<path d="M69.6504 23.4375H92.6439C100.505 23.4375 106.878 29.8103 106.878 37.6716C106.878 45.5329 100.505 51.9057 92.6439 51.9057H69.6504V23.4375Z" fill="#720135"/>
<path d="M69.6504 24.5322H92.6439C99.9005 24.5322 105.783 30.4148 105.783 37.6714C105.783 44.9279 99.9005 50.8105 92.6439 50.8105H69.6504V24.5322Z" fill="white"/>
<path d="M69.6504 25.627H92.6439C99.2958 25.627 104.688 31.0193 104.688 37.6712C104.688 44.323 99.2958 49.7154 92.6439 49.7154H69.6504V25.627Z" fill="#720135"/>
<path d="M69.6504 26.7227H92.6439C98.691 26.7227 103.593 31.6248 103.593 37.672C103.593 43.7191 98.6911 48.6213 92.6439 48.6213H69.6504V26.7227Z" fill="white"/>
<path d="M69.6504 26.7227H92.6439C98.691 26.7227 103.593 31.6248 103.593 37.672C103.593 43.7191 98.6911 48.6213 92.6439 48.6213H69.6504V26.7227Z" fill="#720135"/>
<path d="M69.6504 26.7227H92.6439C98.691 26.7227 103.593 31.6248 103.593 37.672C103.593 43.7191 98.6911 48.6213 92.6439 48.6213H69.6504V26.7227Z" fill="#FFB0D5"/>
<path d="M69.6504 27.8174H92.6439C98.0863 27.8174 102.498 32.2293 102.498 37.6718C102.498 43.1142 98.0863 47.5261 92.6439 47.5261H69.6504V27.8174Z" fill="#720135"/>
<path d="M69.6504 28.9121H92.6439C97.4816 28.9121 101.403 32.8338 101.403 37.6715C101.403 42.5093 97.4816 46.431 92.6439 46.431H69.6504V28.9121Z" fill="white"/>
<path d="M69.6504 30.0068H92.6439C96.8769 30.0068 100.308 33.4384 100.308 37.6713C100.308 41.9043 96.8769 45.3359 92.6439 45.3359H69.6504V30.0068Z" fill="#720135"/>
<path d="M69.6504 31.1016H92.6439C96.2722 31.1016 99.2135 34.0429 99.2135 37.6711C99.2135 41.2994 96.2722 44.2407 92.6439 44.2407H69.6504V31.1016Z" fill="#FFB0D5"/>
<path d="M69.6504 32.1963H92.6439C95.6675 32.1963 98.1186 34.6474 98.1186 37.6709C98.1186 40.6945 95.6675 43.1456 92.6439 43.1456H69.6504V32.1963Z" fill="#720135"/>
<path d="M69.6504 33.291H92.6439C95.0628 33.291 97.0236 35.2519 97.0236 37.6707C97.0236 40.0896 95.0628 42.0505 92.6439 42.0505H69.6504V33.291Z" fill="white"/>
<path d="M69.6504 34.3867H92.6439C94.4581 34.3867 95.9287 35.8574 95.9287 37.6715C95.9287 39.4856 94.4581 40.9563 92.6439 40.9563H69.6504V34.3867Z" fill="#720135"/>
<path d="M69.6504 35.4814H92.6439C93.8533 35.4814 94.8338 36.4619 94.8338 37.6713C94.8338 38.8807 93.8533 39.8612 92.6439 39.8612H69.6504V35.4814Z" fill="white"/>
<path d="M69.6504 36.5762H92.6439C93.2486 36.5762 93.7388 37.0664 93.7388 37.6711C93.7388 38.2758 93.2486 38.766 92.6439 38.766H69.6504V36.5762Z" fill="#720135"/>
<mask id="mask0_153_3" style="mask-type:alpha" maskUnits="userSpaceOnUse" x="123" y="2" width="93" height="72">
<path d="M158.238 73.7228L123.322 2.30469H215.372L178.87 73.7228L168.289 55.207L158.238 73.7228Z" fill="#D9D9D9"/>
</mask>
<g mask="url(#mask0_153_3)">
<rect x="119.24" y="-1.77637" width="107.127" height="80.6004" fill="white"/>
<rect x="138.357" y="-5.6748" width="34.7452" height="105.087" transform="rotate(-26.0008 138.357 -5.6748)" fill="url(#paint1_linear_153_3)"/>
</g>
<defs>
<linearGradient id="paint0_linear_153_3" x1="37.3246" y1="80.7211" x2="36.9834" y2="34.3241" gradientUnits="userSpaceOnUse">
<stop stop-color="#E30069"/>
<stop offset="1" stop-color="#FFBCDB"/>
</linearGradient>
<linearGradient id="paint1_linear_153_3" x1="139.411" y1="38.7886" x2="187.693" y2="36.2502" gradientUnits="userSpaceOnUse">
<stop stop-color="#FF95C6"/>
<stop offset="0.56231" stop-color="#FF499D"/>
<stop offset="1" stop-color="#E30069"/>
</linearGradient>
</defs>
</svg>
